# xmcd
#
# Track frame offsets:
#	150
#	19104
#	36161
#	53041
#	73282
#	92953
#	114573
#	128796
#	143702
#	163264
#	178870
#	198235
#	218038
#	239415
#
# Disc length: 3402
#
# Revision: 1
# Processed by: cddbd v1.5.1PL0 Copyright (c) Steve Scherf et al.
# Submitted via: VisiTrax 2.9.5.181 - For more info visit www.synapsa.com
# Normalized: r0:DSETVAR1
#
DISCID=d00d480e
DTITLE=Various Artist - ALL MY LOVE   VOL. III
DYEAR=1900
DGENRE=
TTITLE0=MICHAEL BOLTON - HOW AM I SUPPOSED TO LIVE WITHOUT YOU
TTITLE1=TOTO - I´LL BE OVER YOU
TTITLE2=EARTH, WIND and FIRE - AFTER THE LOVE HAS GONE
TTITLE3=CHAMPAIGN - HOW ´BOUT US
TTITLE4=NEW KIDS ON THE BLOCK - I´LL BE LOVING YOU FOREVER
TTITLE5=MARTIKA - TOY SOLDIERS
TTITLE6=REX SMITH - YOU TAKE MY BREATH AWAY
TTITLE7=REO SPEEDWAGON - KEEP ON LOVING YOU
TTITLE8=ELECTRIC LIGHT ORCHESTRA - CAN´T GET IT OUT OF MY HEAD
TTITLE9=BLOOD, SWEAT and TEARS - YOU´VE MADE ME SO VERY HAPPY
TTITLE10=´TILL TUESDAY - VOICES CARRY
TTITLE11=CYNDI LAUPER - ALL THROUGH THE NIGHT
TTITLE12=FIREHOUSE - LOVE OF A LIFETIME
TTITLE13=PAUL YOUNG - OH GIRL!
EXTD=
EXTT0=
EXTT1=
EXTT2=
EXTT3=
EXTT4=
EXTT5=
EXTT6=
EXTT7=
EXTT8=
EXTT9=
EXTT10=
EXTT11=
EXTT12=
EXTT13=
PLAYORDER=
